<svg width="155" height="17" viewBox="0 0 155 17" fill="none" xmlns="http://www.w3.org/2000/svg">
<path d="M0.192582 16H3.58058V11.072H6.19858L9.54258 16H13.5026L9.74058 10.5C11.6986 9.774 13.0406 8.212 13.0406 5.726C13.0406 4.23 12.5786 3.02 11.7206 2.162C10.7086 1.15 9.19058 0.6 7.23258 0.6H0.192582V16ZM3.58058 8.08V3.658H6.94658C8.59658 3.658 9.60858 4.406 9.60858 5.858C9.60858 7.2 8.66258 8.08 7.01258 8.08H3.58058ZM25.331 16.264C30.083 16.264 33.537 12.678 33.537 8.3C33.537 3.878 30.127 0.336 25.375 0.336C20.623 0.336 17.169 3.922 17.169 8.3C17.169 12.722 20.579 16.264 25.331 16.264ZM25.375 13.14C22.647 13.14 20.711 10.94 20.711 8.3C20.711 5.616 22.603 3.46 25.331 3.46C28.059 3.46 29.995 5.66 29.995 8.3C29.995 10.984 28.103 13.14 25.375 13.14ZM45.5184 16.264C48.4884 16.264 50.2484 15.34 51.8324 13.646L49.6764 11.336C48.4664 12.436 47.3884 13.14 45.6284 13.14C42.9884 13.14 41.1624 10.94 41.1624 8.3C41.1624 5.616 43.0324 3.46 45.6284 3.46C47.3884 3.46 48.4004 4.098 49.5884 5.176L51.6124 2.844C50.1824 1.436 48.5544 0.336 45.6504 0.336C40.9204 0.336 37.6204 3.922 37.6204 8.3C37.6204 12.766 40.9864 16.264 45.5184 16.264ZM56.3046 16H59.6926V11.292L61.4746 9.444L66.2486 16H70.3186L63.7626 7.134L70.0326 0.6H65.9406L59.6926 7.332V0.6H56.3046V16ZM74.1349 16H85.8609V12.986H77.5009V9.752H84.7609V6.738H77.5009V3.614H85.7509V0.6H74.1349V16ZM94.2192 16H97.6072V3.724H102.293V0.6H89.5332V3.724H94.2192V16ZM106.659 16H118.385V12.986H110.025V9.752H117.285V6.738H110.025V3.614H118.275V0.6H106.659V16ZM130.373 16.264C133.343 16.264 135.103 15.34 136.687 13.646L134.531 11.336C133.321 12.436 132.243 13.14 130.483 13.14C127.843 13.14 126.017 10.94 126.017 8.3C126.017 5.616 127.887 3.46 130.483 3.46C132.243 3.46 133.255 4.098 134.443 5.176L136.467 2.844C135.037 1.436 133.409 0.336 130.505 0.336C125.775 0.336 122.475 3.922 122.475 8.3C122.475 12.766 125.841 16.264 130.373 16.264ZM141.159 16H144.547V9.818H150.795V16H154.183V0.6H150.795V6.694H144.547V0.6H141.159V16Z" fill="#333333"/>
</svg>
